<svg id="logo-brand" xmlns="http://www.w3.org/2000/svg" width="2676" height="628" viewBox="0 0 2676 628">
  <rect id="Artboard1" width="2676" height="628" fill="none"/>
  <g id="Group_415" data-name="Group 415">
    <g id="Group_414" data-name="Group 414">
      <path id="Path_579" data-name="Path 579" d="M268.5,47.5A259.592,259.592,0,0,1,394.5,71q-18.345-5.445-37-11a266.946,266.946,0,0,0-110,.5,216.661,216.661,0,0,0-28-3.5A334.264,334.264,0,0,1,268.5,47.5Z" fill="#912c1b" fill-rule="evenodd"/>
      <path id="Path_580" data-name="Path 580" d="M387.5,513.5a2.867,2.867,0,0,0-1,3,9.6,9.6,0,0,0,6-1,55.812,55.812,0,0,0,31-13.5,168.548,168.548,0,0,0,15-16,25.575,25.575,0,0,1,18-6q16.38,5.885,5.5,19.5A83.956,83.956,0,0,1,431.5,518q-60.75,20.309-118-8A82.059,82.059,0,0,1,282,477.5a122.027,122.027,0,0,1-19-78,83.089,83.089,0,0,1,12-30,198.1,198.1,0,0,0,41-63q27.225-93.784-58.5-140.5a105.117,105.117,0,0,0-56-11q-23.187,3.081-37,21.5,12.812,12.642-2,22.5-30.114,13.152-52.5-10.5a42.2,42.2,0,0,1-6-30q11.59-53.922,61.5-77.5,69.12-28.728,129,16,81.585,66.011,60.5,169.5a200.663,200.663,0,0,1-22,53q-13.995,19-28,38-13.71,23.544-2,48,2.535,2.532,5,5A65,65,0,0,0,321.5,397a173.682,173.682,0,0,1,70-36q24.78-9.3,20.5-35.5-19.26-17.76-14.5-43.5,21.54,1.4,33.5,19.5a15.064,15.064,0,0,1,2.5,10q23.745-6.506,40.5,11a46.043,46.043,0,0,1,4,10q9.255,5.628,18,12,1.74,14.791-9.5,24.5a76.7,76.7,0,0,1-27,12q-16.845,10.787-8.5,29.5,7.9,7.879,18.5,3.5,5.385-4.07,10.5-8.5,8.565-11.385,17.5-22.5a4.457,4.457,0,0,1,5.5,1.5A86.063,86.063,0,0,1,474.5,435a41.939,41.939,0,0,1-26,8.5q-17.43-2.98-35-5.5a196.154,196.154,0,0,0-28,0,38.583,38.583,0,0,0-13,5,70.368,70.368,0,0,1,20,10q12.345,11.041,10.5,27.5Q395.23,497.033,387.5,513.5Z" fill="#8e2514" fill-rule="evenodd"/>
      <path id="Path_581" data-name="Path 581" d="M286.5,32.5h31A280.986,280.986,0,0,1,425.5,62Q547.96,131.069,564,271.5q6.7,127.508-86,214A24.918,24.918,0,0,0,466.5,471q56.34-56.421,70.5-135.5Q557.49,186.905,442.5,92,327.75,9.824,194.5,57A261.855,261.855,0,0,1,286.5,32.5Z" fill="#717070" fill-rule="evenodd"/>
      <path id="Path_582" data-name="Path 582" d="M94.5,142.5a1.1,1.1,0,0,1,1,1,63.64,63.64,0,0,0-2,37.5Q52.815,259.227,72,345.5,106.629,476.129,234.5,520a258.925,258.925,0,0,0,93,10l6,2Q198.33,554.278,105,454.5q-78.138-93.539-56-214A252.971,252.971,0,0,1,94.5,142.5Z" fill="#8e2616" fill-rule="evenodd"/>
      <path id="Path_583" data-name="Path 583" d="M387.5,513.5q1.575,2.634,5,2a9.6,9.6,0,0,1-6,1A2.867,2.867,0,0,1,387.5,513.5Z" fill="#d4aaa5" fill-rule="evenodd"/>
      <path id="Path_584" data-name="Path 584" d="M189.5,525.5a1.612,1.612,0,0,1,1.5-1A246.85,246.85,0,0,0,313.5,543q20.325-2.847,40.5-6.5a223.462,223.462,0,0,0,30.5,2.5Q284.3,569.961,189.5,525.5Z" fill="#747374" fill-rule="evenodd"/>
    </g>
  </g>
  <g id="Group_416" data-name="Group 416">
    <path id="Path_585" data-name="Path 585" d="M873.5,134.5q25.114-1.668,18.5,22-13.053,13.848-26,0Q859.1,141.813,873.5,134.5Z" fill="#8f2817" fill-rule="evenodd"/>
  </g>
  <g id="Group_417" data-name="Group 417">
    <path id="Path_586" data-name="Path 586" d="M2085.5,139.5q18.78.008,14.5,18-11.235,12.369-21-1Q2075.685,145.272,2085.5,139.5Z" fill="#902918" fill-rule="evenodd"/>
  </g>
  <g id="Group_418" data-name="Group 418">
    <path id="Path_587" data-name="Path 587" d="M2053.5,139.5q17.085-.678,14.5,16-5.3,10.6-16.5,6.5Q2038.78,149.34,2053.5,139.5Z" fill="#8f2817" fill-rule="evenodd"/>
  </g>
  <g id="Group_419" data-name="Group 419">
    <rect id="Rectangle_228" data-name="Rectangle 228" width="25" height="131" transform="translate(1192.5 141.5)" fill="#9e4435"/>
  </g>
  <g id="Group_420" data-name="Group 420">
    <rect id="Rectangle_229" data-name="Rectangle 229" width="23" height="129" transform="translate(1193.5 142.5)" fill="#8d2313"/>
  </g>
  <g id="Group_421" data-name="Group 421">
    <path id="Path_588" data-name="Path 588" d="M1048.5,272.5v-130h-24v130q-1.5-65.246-1-131h26Q1050,207.256,1048.5,272.5Z" fill="#d4ada6" fill-rule="evenodd"/>
  </g>
  <g id="Group_422" data-name="Group 422">
    <rect id="Rectangle_230" data-name="Rectangle 230" width="24" height="130" transform="translate(1024.5 142.5)" fill="#8d2413"/>
  </g>
  <g id="Group_423" data-name="Group 423">
    <path id="Path_589" data-name="Path 589" d="M723.5,179.5v3h-26q-1.146-3.36-2.5-7-9.729-9.82-23.5-6.5a14.077,14.077,0,0,0-6.5,4.5q-7.047,13.86,6.5,21.5,15.871,5.79,32,11A47.6,47.6,0,0,1,720,217.5q12.678,23.748-4.5,44.5-22.046,16.1-49,10-24.54-6.287-30-30.5v-5q13.009-.249,26,.5,2.658,15.66,18.5,16.5,23.638-.868,17-23a18.778,18.778,0,0,0-5.5-4.5q-16.835-6.459-34-12-17.73-6.467-22-24.5v-12a36.669,36.669,0,0,1,15-22.5,58.905,58.905,0,0,1,43-6Q719.1,154.844,723.5,179.5Z" fill="#8f2616" fill-rule="evenodd"/>
  </g>
  <g id="Group_424" data-name="Group 424">
    <path id="Path_590" data-name="Path 590" d="M1653.5,149.5h30q21.8,61.388,43,123h-26a139.841,139.841,0,0,0-8-23.5,400.765,400.765,0,0,0-49,.5q-3.855,11.332-8,22.5a169.168,169.168,0,0,1-26,0Q1632.133,210.983,1653.5,149.5Zm32,79q-7.71-25.392-17.5-50-8.715,24.386-16.5,49A289.556,289.556,0,0,0,1685.5,228.5Z" fill="#8e2515" fill-rule="evenodd"/>
  </g>
  <g id="Group_425" data-name="Group 425">
    <path id="Path_591" data-name="Path 591" d="M1411.5,194.5h-22q-.495,25.263,1,50a8.292,8.292,0,0,0,4,6.5,145.054,145.054,0,0,0,17,.5v21a147.852,147.852,0,0,1-28-1.5,27.065,27.065,0,0,1-17.5-18.5q-.75-28.5-.5-57h-12v-21h12v-24h24v24h22Z" fill="#8e2514" fill-rule="evenodd"/>
  </g>
  <g id="Group_426" data-name="Group 426">
    <path id="Path_592" data-name="Path 592" d="M2243.5,195.5a30.841,30.841,0,0,0-11-1v-20h11v-24h25v24h22v21h-22a487.648,487.648,0,0,0,1.5,53,6.969,6.969,0,0,0,3.5,2.5,145.048,145.048,0,0,0,17,.5v21a147.871,147.871,0,0,1-28-1.5q-16.05-4.816-18.5-21.5Q2243.25,222.5,2243.5,195.5Z" fill="#8f2616" fill-rule="evenodd"/>
  </g>
  <g id="Group_427" data-name="Group 427">
    <path id="Path_593" data-name="Path 593" d="M771.5,318.5h-24v-144h24a98.426,98.426,0,0,0,.5,14q16.143-19.666,41.5-14.5,34.676,11.31,35,48,.668,31.682-26,48-28.945,11.467-50.5-10.5Q771.25,289,771.5,318.5Zm21-124q-16.014,5.46-20.5,22-4.16,26.465,20.5,35.5,25.192,1.321,30.5-23.5Q825.337,195.651,792.5,194.5Z" fill="#8e2514" fill-rule="evenodd"/>
  </g>
  <path id="Subtraction_3" data-name="Subtraction 3" d="M4068.4-430.737a61.659,61.659,0,0,1-20.753-3.218,38.94,38.94,0,0,1-15.151-9.654,43.853,43.853,0,0,1-9.548-16.09A79.419,79.419,0,0,1,4019-482.226a63.132,63.132,0,0,1,2.689-17.212,44.828,44.828,0,0,1,7.063-13.821,44.466,44.466,0,0,1,11.437-10.429A61.92,61.92,0,0,1,4056-530.726c2.654-.182,5.252-.274,7.725-.274a70.175,70.175,0,0,1,22.774,3.359,43.9,43.9,0,0,1,8.9,4.2,37.447,37.447,0,0,1,7.25,5.878,38.471,38.471,0,0,1,5.9,8.1,47.84,47.84,0,0,1,4.024,10.008c2.048,7.272,2.863,15.928,2.422,25.727h-71a41.059,41.059,0,0,0,2.6,9.977,22.782,22.782,0,0,0,4.55,7.127,17.826,17.826,0,0,0,6.5,4.276,23.659,23.659,0,0,0,8.445,1.425,42.608,42.608,0,0,0,9.9-1.3,20.415,20.415,0,0,0,5.854-3.854,20.368,20.368,0,0,0,4.146-5.646,92.467,92.467,0,0,1,13.5-1,92.477,92.477,0,0,1,13.5,1,52.95,52.95,0,0,1-5.529,11.272,43.016,43.016,0,0,1-7.676,8.84,43.265,43.265,0,0,1-9.824,6.409A53.732,53.732,0,0,1,4078-431.226C4074.673-430.9,4071.443-430.737,4068.4-430.737Zm-2.829-80.433a36.725,36.725,0,0,0-5.569.444,27.533,27.533,0,0,0-10.813,8.317A27.9,27.9,0,0,0,4044-489.726h46a21.444,21.444,0,0,0-1.5-9,29.854,29.854,0,0,0-10.091-9.333A26.6,26.6,0,0,0,4065.569-511.17Z" transform="translate(-3109.5 704.226)" fill="#8e2515"/>
  <g id="Group_429" data-name="Group 429">
    <path id="Path_595" data-name="Path 595" d="M1310.5,186.5a4.306,4.306,0,0,0,1.5,2,98.426,98.426,0,0,0,.5-14h25v98h-25a98.426,98.426,0,0,0-.5-14q-16.953,19.485-42.5,14.5-26.167-8.667-32.5-35.5-7.281-29.622,12.5-52.5,25.193-20.183,54-5Q1307.11,183.274,1310.5,186.5Zm-29,8q-23.58,8.62-20.5,34,5.106,24.927,30.5,23.5,24.209-8.633,20.5-34.5Q1306.063,193.828,1281.5,194.5Z" fill="#8f2716" fill-rule="evenodd"/>
  </g>
  <g id="Group_430" data-name="Group 430">
    <path id="Path_596" data-name="Path 596" d="M1883.5,173.5a65.155,65.155,0,0,1,38,6.5,33.219,33.219,0,0,1,13,25.5h-23q-3.03-13.3-17-13-14.43-.829-12.5,13a15.608,15.608,0,0,0,6.5,5.5,285.414,285.414,0,0,1,36,12q18.8,16.85,5.5,38.5a36.508,36.508,0,0,1-21.5,11.5q-27.96,5.834-47.5-14.5a38.194,38.194,0,0,1-6.5-17,157.15,157.15,0,0,1,25,1q7.08,15.625,24,11.5,9.69-2.637,8.5-12.5c-1.17-1.167-2.33-2.333-3.5-3.5q-16.845-5.961-34-11-21.6-9.193-16.5-32.5a40.154,40.154,0,0,1,8.5-12.5A101.292,101.292,0,0,1,1883.5,173.5Z" fill="#8e2615" fill-rule="evenodd"/>
  </g>
  <g id="Group_431" data-name="Group 431">
    <path id="Path_597" data-name="Path 597" d="M2167.5,173.5a159.474,159.474,0,0,1,27,1.5q22.41,7.153,24,30.5h-24q-.09-8.4-8-11.5a23.163,23.163,0,0,0-18,1q-9.09,10.512,4,16a230.479,230.479,0,0,1,34,11q21,14.753,8.5,37.5a36.3,36.3,0,0,1-24.5,13.5q-27.8,5.4-46.5-15.5a41.51,41.51,0,0,1-5.5-16,157.149,157.149,0,0,1,25,1q7.815,17.135,26,10.5,10.035-5.846,3-15-15.8-5.6-32-10-27.225-11.177-16.5-38.5A38.553,38.553,0,0,1,2167.5,173.5Z" fill="#8e2615" fill-rule="evenodd"/>
  </g>
  <g id="Group_432" data-name="Group 432">
    <path id="Path_598" data-name="Path 598" d="M2449.5,217.5q-1.5,26.739-1,54h-23v-96h23a31,31,0,0,0,1,11q19.89-20.521,47-9.5,16.905,8.063,20.5,26.5.75,34.5.5,69h-24q.255-30-.5-60-7.32-23.785-31.5-16.5Q2449.095,203.036,2449.5,217.5Z" fill="#8e2414" fill-rule="evenodd"/>
  </g>
  <g id="Group_433" data-name="Group 433">
    <path id="Path_599" data-name="Path 599" d="M2610.5,187.5a1.1,1.1,0,0,0,1,1,43.05,43.05,0,0,0,1-13h24v103a52.124,52.124,0,0,1-12.5,29q-26.5,20.309-58.5,9.5-23.37-8.1-26-32.5,12.015-.249,24,.5,10.83,18.459,32,13,13.02-4.018,15.5-17.5a120.663,120.663,0,0,0,0-22,40.123,40.123,0,0,1-21.5,14.5q-30.54,5.094-47.5-20.5a62.477,62.477,0,0,1-5-47q13.155-36.209,51.5-31.5A34.839,34.839,0,0,1,2610.5,187.5Zm-30,7q-14.475,5.225-19.5,20-5.805,27.159,19.5,37.5,24.285,1.987,30.5-21.5Q2615.365,195.631,2580.5,194.5Z" fill="#8e2515" fill-rule="evenodd"/>
  </g>
  <g id="Group_434" data-name="Group 434">
    <path id="Path_600" data-name="Path 600" d="M1099.5,260.5a4.306,4.306,0,0,0-1.5-2q-.75,30-.5,60h-24v-144h24a98.426,98.426,0,0,0,.5,14q23.559-24.51,54.5-9.5,21.623,15.238,22,42,1.883,29.727-22,47-23.325,11.482-46-1Q1102.89,263.725,1099.5,260.5Zm19-66q-16.233,5.992-20.5,23-2.985,25.3,20.5,34.5,23.947,1.55,30.5-21.5Q1152.994,195.919,1118.5,194.5Z" fill="#8e2514" fill-rule="evenodd"/>
  </g>
  <g id="Group_435" data-name="Group 435">
    <path id="Path_601" data-name="Path 601" d="M1424.5,175.5v-1h71a110.829,110.829,0,0,1-1,21v-20Z" fill="#a65446" fill-rule="evenodd"/>
  </g>
  <g id="Group_436" data-name="Group 436">
    <path id="Path_602" data-name="Path 602" d="M2636.5,174.5v1h-24a43.05,43.05,0,0,1-1,13,1.1,1.1,0,0,1-1-1,42.948,42.948,0,0,0,1-13Z" fill="#a0493a" fill-rule="evenodd"/>
  </g>
  <g id="Group_437" data-name="Group 437">
    <rect id="Rectangle_231" data-name="Rectangle 231" width="24" height="97" transform="translate(866.5 175.5)" fill="#8d2414"/>
  </g>
  <g id="Group_438" data-name="Group 438">
    <path id="Path_603" data-name="Path 603" d="M1424.5,175.5h70v20q-20.865,27.232-41,55a1.1,1.1,0,0,0-1,1q21.477,1.5,43,1v19h-71v-19l41-56a1.1,1.1,0,0,0,1-1q-20.976-1.5-42-1Z" fill="#8e2414" fill-rule="evenodd"/>
  </g>
  <g id="Group_439" data-name="Group 439">
    <path id="Path_604" data-name="Path 604" d="M1767.5,229.5q2.865,28.584,31,21.5,11.85-6.114,12-19.5,1.5-27.739,1-56h24v96h-24a31.164,31.164,0,0,0-1-11,1.1,1.1,0,0,0-1,1q-11.64,12.393-29,12-32.625-1.57-37-34v-64h23Q1766.005,202.761,1767.5,229.5Z" fill="#8d2414" fill-rule="evenodd"/>
  </g>
  <g id="Group_440" data-name="Group 440">
    <path id="Path_605" data-name="Path 605" d="M1980.5,174.5a112.123,112.123,0,0,0,.5,15,4.267,4.267,0,0,0,1.5-2q10.335-14.171,28-14v26a41.385,41.385,0,0,0-22,3.5,21.04,21.04,0,0,0-7.5,13.5q-.75,28-.5,56h-24v-98Z" fill="#8e2514" fill-rule="evenodd"/>
  </g>
  <g id="Group_441" data-name="Group 441">
    <path id="Path_606" data-name="Path 606" d="M2026.5,174.5h25q-.255,31.5.5,63,4.53,15.271,20.5,15,17.19-.454,21.5-17,.75-30.5.5-61h25v98h-25a71.838,71.838,0,0,0-.5-12q-11.415,13.572-29.5,13-32.73-1.475-37.5-34Q2026.25,207,2026.5,174.5Z" fill="#8e2615" fill-rule="evenodd"/>
  </g>
  <g id="Group_442" data-name="Group 442">
    <path id="Path_607" data-name="Path 607" d="M2232.5,174.5v20a30.841,30.841,0,0,1,11,1h-12A111.316,111.316,0,0,1,2232.5,174.5Z" fill="#c58f86" fill-rule="evenodd"/>
  </g>
  <g id="Group_443" data-name="Group 443">
    <path id="Path_608" data-name="Path 608" d="M2375.5,175.5h24v96h-24a60.4,60.4,0,0,0-.5-11q-18.8,19.262-44.5,10.5-19.44-9.084-22.5-30.5-.75-33-.5-66h24q-.66,31.567,1.5,63,6.99,18.375,26.5,14.5,11.145-2.642,14.5-13.5Q2376.175,207.081,2375.5,175.5Z" fill="#8e2414" fill-rule="evenodd"/>
  </g>
  <g id="Group_444" data-name="Group 444">
    <path id="Path_609" data-name="Path 609" d="M1835.5,175.5h-24q.495,28.262-1,56v-57A156.806,156.806,0,0,1,1835.5,175.5Z" fill="#ad6154" fill-rule="evenodd"/>
  </g>
  <g id="Group_445" data-name="Group 445">
    <path id="Path_610" data-name="Path 610" d="M2375.5,175.5a156.806,156.806,0,0,1,25-1v98a156.806,156.806,0,0,1-25-1h24v-96Z" fill="#9c4132" fill-rule="evenodd"/>
  </g>
  <g id="Group_446" data-name="Group 446">
    <path id="Path_611" data-name="Path 611" d="M2449.5,186.5a31,31,0,0,1-1-11h-23v96h23q-.5-27.261,1-54v55h-25v-98h25Z" fill="#9c4031" fill-rule="evenodd"/>
  </g>
  <g id="Group_447" data-name="Group 447">
    <path id="Path_612" data-name="Path 612" d="M866.5,175.5a156.82,156.82,0,0,1,25-1q.5,49.257-1,98v-97Z" fill="#ad6357" fill-rule="evenodd"/>
  </g>
  <g id="Group_448" data-name="Group 448">
    <path id="Path_613" data-name="Path 613" d="M1312.5,174.5a98.426,98.426,0,0,1-.5,14,4.306,4.306,0,0,1-1.5-2Q1311.5,180.5,1312.5,174.5Z" fill="#d3aba4" fill-rule="evenodd"/>
  </g>
  <g id="Group_449" data-name="Group 449">
    <path id="Path_614" data-name="Path 614" d="M747.5,174.5v144h24a156.82,156.82,0,0,1-25,1Q746,246.746,747.5,174.5Z" fill="#c1867d" fill-rule="evenodd"/>
  </g>
  <g id="Group_450" data-name="Group 450">
    <path id="Path_615" data-name="Path 615" d="M1767.5,229.5q-1.5-26.739-1-54h-23v64q-1.5-32.241-1-65h25Z" fill="#9e4435" fill-rule="evenodd"/>
  </g>
  <g id="Group_451" data-name="Group 451">
    <path id="Path_616" data-name="Path 616" d="M1980.5,174.5q1.005,6.5,2,13a4.267,4.267,0,0,1-1.5,2A112.123,112.123,0,0,1,1980.5,174.5Z" fill="#d9b6b0" fill-rule="evenodd"/>
  </g>
  <g id="Group_452" data-name="Group 452">
    <path id="Path_617" data-name="Path 617" d="M723.5,179.5a4.612,4.612,0,0,1,1,4,182.842,182.842,0,0,1-27-1h26Z" fill="#e7d0cc" fill-rule="evenodd"/>
  </g>
  <g id="Group_454" data-name="Group 454">
    <path id="Path_619" data-name="Path 619" d="M1424.5,174.5v20q21.024-.5,42,1a1.1,1.1,0,0,1-1,1q-20.734-1.494-42-1A110.829,110.829,0,0,1,1424.5,174.5Z" fill="#c69087" fill-rule="evenodd"/>
  </g>
  <g id="Group_455" data-name="Group 455">
    <path id="Path_620" data-name="Path 620" d="M1411.5,194.5a110.822,110.822,0,0,1-21,1v49q-1.5-24.738-1-50Z" fill="#cea29a" fill-rule="evenodd"/>
  </g>
  <g id="Group_456" data-name="Group 456">
    <path id="Path_621" data-name="Path 621" d="M1589.5,199.5h-74v20h74q-37.242,1.5-75,1v-22Q1552.258,198,1589.5,199.5Z" fill="#c99890" fill-rule="evenodd"/>
  </g>
  <g id="Group_457" data-name="Group 457">
    <rect id="Rectangle_232" data-name="Rectangle 232" width="74" height="20" transform="translate(1515.5 199.5)" fill="#8d2313"/>
  </g>
  <g id="Group_458" data-name="Group 458">
    <path id="Path_622" data-name="Path 622" d="M1651.5,227.5a289.556,289.556,0,0,0,34,1,154.693,154.693,0,0,1-35,0A1.1,1.1,0,0,1,1651.5,227.5Z" fill="#dab8b3" fill-rule="evenodd"/>
  </g>
  <g id="Group_459" data-name="Group 459">
    <path id="Path_623" data-name="Path 623" d="M1453.5,250.5l42,2q-21.523.5-43-1A1.1,1.1,0,0,1,1453.5,250.5Z" fill="#cd9e96" fill-rule="evenodd"/>
  </g>
  <g id="Group_460" data-name="Group 460">
    <path id="Path_624" data-name="Path 624" d="M1099.5,260.5q-1,29-2,58-.25-30,.5-60A4.306,4.306,0,0,1,1099.5,260.5Z" fill="#d3aca5" fill-rule="evenodd"/>
  </g>
  <g id="Group_461" data-name="Group 461">
    <path id="Path_625" data-name="Path 625" d="M1424.5,252.5v19h71q-35.742,1.5-72,1A100.585,100.585,0,0,1,1424.5,252.5Z" fill="#a34e3f" fill-rule="evenodd"/>
  </g>
  <g id="Group_462" data-name="Group 462">
    <path id="Path_626" data-name="Path 626" d="M1809.5,261.5a1.1,1.1,0,0,1,1-1,31.164,31.164,0,0,1,1,11h24a156.806,156.806,0,0,1-25,1A31,31,0,0,0,1809.5,261.5Z" fill="#a14a3b" fill-rule="evenodd"/>
  </g>
  <g id="Group_463" data-name="Group 463">
    <rect id="Rectangle_233" data-name="Rectangle 233" width="8" height="77" transform="translate(1499.5 346.5)" fill="#902818"/>
  </g>
  <g id="Group_464" data-name="Group 464">
    <rect id="Rectangle_234" data-name="Rectangle 234" width="8" height="77" transform="translate(2037.5 346.5)" fill="#912c1b"/>
  </g>
  <g id="Group_465" data-name="Group 465">
    <path id="Path_627" data-name="Path 627" d="M1934.5,349.5q10.11-.165,6.5,9-7.335,4.465-9.5-4A11.906,11.906,0,0,1,1934.5,349.5Z" fill="#797778" fill-rule="evenodd"/>
  </g>
  <g id="Group_466" data-name="Group 466">
    <rect id="Rectangle_235" data-name="Rectangle 235" width="8" height="63" transform="translate(1431.5 351.5)" fill="#747273"/>
  </g>
  <g id="Group_467" data-name="Group 467">
    <path id="Path_628" data-name="Path 628" d="M1460.5,351.5h-7v63q-1.5-31.74-1-64A16.611,16.611,0,0,1,1460.5,351.5Z" fill="#bbb9ba" fill-rule="evenodd"/>
  </g>
  <g id="Group_468" data-name="Group 468">
    <rect id="Rectangle_236" data-name="Rectangle 236" width="7" height="63" transform="translate(1453.5 351.5)" fill="#716f70"/>
  </g>
  <g id="Group_469" data-name="Group 469">
    <rect id="Rectangle_237" data-name="Rectangle 237" width="8" height="63" transform="translate(2205.5 351.5)" fill="#777576"/>
  </g>
  <g id="Group_470" data-name="Group 470">
    <path id="Path_629" data-name="Path 629" d="M1248.5,349.5q10.7.434,5,9.5-8.99,2.5-7.5-6.5A11.307,11.307,0,0,1,1248.5,349.5Z" fill="#737172" fill-rule="evenodd"/>
  </g>
  <g id="Group_471" data-name="Group 471">
    <rect id="Rectangle_238" data-name="Rectangle 238" width="7" height="63" transform="translate(1880.5 351.5)" fill="#716f70"/>
  </g>
  <g id="Group_472" data-name="Group 472">
    <path id="Path_630" data-name="Path 630" d="M2160.5,351.5h8q-.255,18.008.5,36,8.745-9.75,17.5-19.5a30.485,30.485,0,0,1,11,0q-11.55,11.046-22,23,10.455,11.955,22,23a30.485,30.485,0,0,1-11,0q-8.745-9.75-17.5-19.5a199.214,199.214,0,0,0-.5,20h-8Z" fill="#757374" fill-rule="evenodd"/>
  </g>
  <g id="Group_473" data-name="Group 473">
    <path id="Path_631" data-name="Path 631" d="M2328.5,349.5q10.695.309,5,9.5-6.855,2.475-8-4.5A11.908,11.908,0,0,1,2328.5,349.5Z" fill="#737172" fill-rule="evenodd"/>
  </g>
  <g id="Group_474" data-name="Group 474">
    <path id="Path_632" data-name="Path 632" d="M2085.5,349.5q11.28-.165,6,9.5Q2079.38,360.207,2085.5,349.5Z" fill="#747273" fill-rule="evenodd"/>
  </g>
  <g id="Group_475" data-name="Group 475">
    <path id="Path_633" data-name="Path 633" d="M1911.5,367.5a31,31,0,0,1-1-11h-7a31,31,0,0,1-1,11v-12h9Z" fill="#b6b4b5" fill-rule="evenodd"/>
  </g>
  <g id="Group_476" data-name="Group 476">
    <rect id="Rectangle_239" data-name="Rectangle 239" width="8" height="47" transform="translate(1246.5 367.5)" fill="#747273"/>
  </g>
  <path id="Subtraction_5" data-name="Subtraction 5" d="M4041.712-482.253c-1.328,0-2.726-.073-4.154-.216a35.352,35.352,0,0,1-9.715-5.11,22.447,22.447,0,0,1-6.156-7.12,23.012,23.012,0,0,1-2.6-9.13,37.339,37.339,0,0,1,.965-11.139,29.315,29.315,0,0,1,7-10.006,28.453,28.453,0,0,1,10.5-5.994c.641-.021,1.279-.031,1.9-.031a37.705,37.705,0,0,1,12.139,1.766,20.685,20.685,0,0,1,8.487,5.3,21.191,21.191,0,0,1,4.915,9.12,40.345,40.345,0,0,1,1.062,12.848,34.366,34.366,0,0,1-3.475,8.625,22.59,22.59,0,0,1-5.216,6.161,21.02,21.02,0,0,1-6.957,3.7A29.009,29.009,0,0,1,4041.712-482.253Zm-3.155-41.715h0a23.861,23.861,0,0,0-6.223,3.953,15.815,15.815,0,0,0-3.824,5.151,16.492,16.492,0,0,0-1.426,6.349,26.222,26.222,0,0,0,.973,7.547,15.5,15.5,0,0,0,2.552,6.105,15.5,15.5,0,0,0,4.948,4.4,24.962,24.962,0,0,0,6.973,1.1,14.893,14.893,0,0,0,9.127-2.9,21.056,21.056,0,0,0,6.4-8.7,30.6,30.6,0,0,0,.067-10.01,15.09,15.09,0,0,0-3.247-7.17,15.022,15.022,0,0,0-6.52-4.315,30.208,30.208,0,0,0-9.8-1.5Z" transform="translate(-2754.058 897.469)" fill="#757374"/>
  <g id="Group_478" data-name="Group 478">
    <path id="Path_635" data-name="Path 635" d="M1564.5,366.5q17.79-1.74,23.5,15,.75,16.492.5,33h-8q.25-16.008-.5-32-6.365-12.291-19.5-7.5a25.551,25.551,0,0,0-5.5,6.5q-.75,16.492-.5,33h-8v-47h7a9.862,9.862,0,0,0,1,6A25.764,25.764,0,0,1,1564.5,366.5Z" fill="#767475" fill-rule="evenodd"/>
  </g>
  <path id="Subtraction_8" data-name="Subtraction 8" d="M4040.759-481.991h0a20.756,20.756,0,0,1-7.151-1.344,32.921,32.921,0,0,1-7.482-4.031,33.456,33.456,0,0,1-6.638-14.474,34.37,34.37,0,0,1,1.138-16.025,28.485,28.485,0,0,1,6.532-8.007,27.968,27.968,0,0,1,8.969-4.993c.96-.089,1.917-.134,2.844-.134a25.1,25.1,0,0,1,10.1,2.033,26.647,26.647,0,0,1,8.557,6.1,25.1,25.1,0,0,0,.5-7h8v47h-8a32.712,32.712,0,0,0-.5-8,29.591,29.591,0,0,1-8.161,6.656A18.561,18.561,0,0,1,4040.759-481.991Zm-2.634-41.875a17.633,17.633,0,0,0-6.316,3.813,18.3,18.3,0,0,0-4.185,6.188,27.774,27.774,0,0,0-.952,7.785,18.434,18.434,0,0,0,1.433,6.678,17.832,17.832,0,0,0,3.817,5.572,25.705,25.705,0,0,0,6.2,4.465,25.128,25.128,0,0,0,4.268.391,14.834,14.834,0,0,0,9.373-2.973,18.742,18.742,0,0,0,5.859-8.918,30.609,30.609,0,0,0,.065-10.012,15.1,15.1,0,0,0-3.249-7.171,15.024,15.024,0,0,0-6.519-4.314,30.194,30.194,0,0,0-9.8-1.5h0Z" transform="translate(-2199.625 897.366)" fill="#757374"/>
  <g id="Group_480" data-name="Group 480">
    <rect id="Rectangle_240" data-name="Rectangle 240" width="8" height="47" transform="translate(2084.5 367.5)" fill="#767475"/>
  </g>
  <g id="Group_481" data-name="Group 481">
    <path id="Path_637" data-name="Path 637" d="M1005.5,366.5h5v9q-10.418-2.588-14.5,7-.75,15.992-.5,32h-8v-47h8a18.454,18.454,0,0,0,.5,6A19.406,19.406,0,0,1,1005.5,366.5Z" fill="#777576" fill-rule="evenodd"/>
  </g>
  <g id="Group_482" data-name="Group 482">
    <rect id="Rectangle_241" data-name="Rectangle 241" width="7" height="47" transform="translate(1933.5 367.5)" fill="#727071"/>
  </g>
  <g id="Group_483" data-name="Group 483">
    <path id="Path_638" data-name="Path 638" d="M2123.5,366.5q14.3-1.5,22.5,10a256.2,256.2,0,0,1,1.5,38h-7a207.382,207.382,0,0,0-1.5-34q-8.2-10.941-20.5-4.5a26.038,26.038,0,0,0-4.5,7.5q-.75,15.492-.5,31h-8v-47h8a18.374,18.374,0,0,0,.5,6A32.027,32.027,0,0,1,2123.5,366.5Z" fill="#757374" fill-rule="evenodd"/>
  </g>
  <g id="Group_484" data-name="Group 484">
    <path id="Path_639" data-name="Path 639" d="M2226.5,367.5h8q-.255,16.008.5,32,6.585,14.008,20.5,6.5a11.476,11.476,0,0,0,3.5-4.5,207.382,207.382,0,0,0,1.5-34h8v47h-8a18.374,18.374,0,0,0-.5-6q-14.13,13.207-29,1a22.655,22.655,0,0,1-4-8Q2226.25,384.508,2226.5,367.5Z" fill="#757374" fill-rule="evenodd"/>
  </g>
  <g id="Group_485" data-name="Group 485">
    <path id="Path_640" data-name="Path 640" d="M1711.5,351.5h8q-.255,11.012.5,22,14.955-13.908,30,0l3,6q.75,17.493.5,35h-8q.255-16.508-.5-33-7.44-12.359-20.5-5.5a14.033,14.033,0,0,0-4.5,6.5q-.75,15.992-.5,32h-8Z" fill="#757374" fill-rule="evenodd"/>
  </g>
  <g id="Group_486" data-name="Group 486">
    <rect id="Rectangle_242" data-name="Rectangle 242" width="8" height="47" transform="translate(2326.5 367.5)" fill="#777576"/>
  </g>
  <g id="Group_487" data-name="Group 487">
    <path id="Path_641" data-name="Path 641" d="M949.5,366.5q29.453.7,26.5,30-6.591,22.6-29.5,17.5a25.95,25.95,0,0,1-9.5-7.5q-.75,14.991-.5,30h-7v-69h7q-1.966,12.449,5,3.5A48.482,48.482,0,0,1,949.5,366.5Zm-1,7a21.3,21.3,0,0,0-10.5,10q-4.857,17.008,10.5,24.5,14.656,2.547,19.5-11.5Q971.441,373.7,948.5,373.5Z" fill="#747273" fill-rule="evenodd"/>
  </g>
  <g id="Group_488" data-name="Group 488">
    <path id="Path_642" data-name="Path 642" d="M1167.5,366.5a22.117,22.117,0,0,1,20.5,8,12.147,12.147,0,0,1,1.5,7h-8q-.964-9.135-10.5-8-12.684,1.58-5.5,11.5,8.386,3.3,17,6,14.754,9.054,2,21-16.057,8.664-28.5-4.5a12.147,12.147,0,0,1-1.5-7h8q1.344,8.211,10,8,7.815.689,10-6.5a6.127,6.127,0,0,0-3-5,184.5,184.5,0,0,1-18-6q-10.241-6.719-4.5-17.5A26.127,26.127,0,0,1,1167.5,366.5Z" fill="#757374" fill-rule="evenodd"/>
  </g>
  <g id="Group_489" data-name="Group 489">
    <path id="Path_643" data-name="Path 643" d="M1035.5,366.5q36.489,1.951,25.5,37-15.283,19.8-36.5,6.5-15.922-19.044,0-38A42.488,42.488,0,0,1,1035.5,366.5Zm0,7q-14.021,7.256-10.5,23,4.839,14.046,19.5,11.5,14.8-7.824,10.5-24.5Q1048.773,372.01,1035.5,373.5Z" fill="#757374" fill-rule="evenodd"/>
  </g>
  <g id="Group_490" data-name="Group 490">
    <path id="Path_644" data-name="Path 644" d="M1070.5,367.5v6h6v41q-1.494-19.734-1-40h-6A12.853,12.853,0,0,1,1070.5,367.5Z" fill="#bcbcbc" fill-rule="evenodd"/>
  </g>
  <g id="Group_491" data-name="Group 491">
    <path id="Path_645" data-name="Path 645" d="M1093.5,373.5a20.849,20.849,0,0,1-9,1q.493,20.265-1,40v-41Z" fill="#c5c3c4" fill-rule="evenodd"/>
  </g>
  <g id="Group_493" data-name="Group 493">
    <path id="Path_647" data-name="Path 647" d="M1766.5,351.5h8q-.255,11.012.5,22,11.835-11.762,26.5-3.5a25.571,25.571,0,0,1,5.5,6.5,256.2,256.2,0,0,1,1.5,38h-7a207.355,207.355,0,0,0-1.5-34q-8.2-10.941-20.5-4.5a26.032,26.032,0,0,0-4.5,7.5q-.75,15.492-.5,31h-8Z" fill="#757374" fill-rule="evenodd"/>
  </g>
  <g id="Group_495" data-name="Group 495">
    <path id="Path_649" data-name="Path 649" d="M1897.5,367.5v6h6v30a211,211,0,0,1-1-29h-6A12.853,12.853,0,0,1,1897.5,367.5Z" fill="#cccbcc" fill-rule="evenodd"/>
  </g>
  <g id="Group_496" data-name="Group 496">
    <path id="Path_650" data-name="Path 650" d="M1093.5,373.5h-10v41h-7v-41h-6v-6h6q-2.743-19.755,17-18v6q-11.936-.049-10,12h10Z" fill="#727071" fill-rule="evenodd"/>
  </g>
  <path id="Subtraction_7" data-name="Subtraction 7" d="M4041.094-481.888a18.749,18.749,0,0,1-8.693-2.245,33.141,33.141,0,0,1-8.563-6.735,42.282,42.282,0,0,1-4.485-12.641,23.207,23.207,0,0,1,.672-10.922,22.819,22.819,0,0,1,5.674-9.046,40.325,40.325,0,0,1,10.64-7.391c.956-.087,1.907-.131,2.828-.131a25.21,25.21,0,0,1,10.131,2.033,26.4,26.4,0,0,1,8.542,6.1,25.1,25.1,0,0,0,.5-7h8v47h-8a25.082,25.082,0,0,0-.5-7,33.786,33.786,0,0,1-8.43,5.985A19.289,19.289,0,0,1,4041.094-481.888Zm.244-42.161a26.058,26.058,0,0,0-3,.18,24.834,24.834,0,0,0-5.953,4.158,17.229,17.229,0,0,0-3.734,5.219,17.576,17.576,0,0,0-1.516,6.281,26.019,26.019,0,0,0,.7,7.342,18.725,18.725,0,0,0,5.856,8.918,14.839,14.839,0,0,0,9.376,2.972,25.107,25.107,0,0,0,4.268-.391,25.7,25.7,0,0,0,6.2-4.465,17.82,17.82,0,0,0,3.817-5.572,18.423,18.423,0,0,0,1.432-6.678,27.777,27.777,0,0,0-.953-7.785,20.039,20.039,0,0,0-6.914-7.635A17.964,17.964,0,0,0,4041.338-524.049Z" transform="translate(-2420.838 897.369)" fill="#747273"/>
  <path id="Subtraction_9" data-name="Subtraction 9" d="M4049.83-460.051v0h0l-13,0a41.5,41.5,0,0,1-11.5-7,16.736,16.736,0,0,1-3.5-9h8a11.711,11.711,0,0,0,2.788,5.289,12.548,12.548,0,0,0,5.212,3.21c1.229.1,2.42.145,3.543.145a25.794,25.794,0,0,0,8.733-1.319,13.192,13.192,0,0,0,5.808-3.958,14.635,14.635,0,0,0,3.03-7.538,34.229,34.229,0,0,0-.615-10.829,29.247,29.247,0,0,1-8.188,6.658,18.939,18.939,0,0,1-8.828,2.22c-4.263,0-8.8-1.473-13.485-4.378a36.585,36.585,0,0,1-5.912-8.247,26.337,26.337,0,0,1-2.721-8.666,26.453,26.453,0,0,1,.47-9.084,36.972,36.972,0,0,1,3.662-9.5,34.358,34.358,0,0,1,8.73-6.712A19.12,19.12,0,0,1,4040.8-531a19.2,19.2,0,0,1,8.757,2.237,34.641,34.641,0,0,1,8.769,6.712,32.647,32.647,0,0,0,.5-8h8c.169,17.162,0,34.657-.5,52a23.764,23.764,0,0,1-5.558,11.557A23.1,23.1,0,0,1,4049.83-460.051ZM4039.765-524.1c-.626,0-1.277.015-1.933.046a24.715,24.715,0,0,0-9.5,9,26.218,26.218,0,0,0-1.708,7.28,17.674,17.674,0,0,0,.681,6.51,17.386,17.386,0,0,0,3.069,5.74,25.231,25.231,0,0,0,5.458,4.97,26.474,26.474,0,0,0,7.07,1.076,14.079,14.079,0,0,0,9.605-3.394c2.56-2.252,4.519-5.677,5.824-10.181a29.458,29.458,0,0,0-.584-9.379,14.983,14.983,0,0,0-3.437-6.632,14.4,14.4,0,0,0-5.964-3.776A26.4,26.4,0,0,0,4039.765-524.1Z" transform="translate(-2067.331 897.551)" fill="#757374"/>
  <path id="Subtraction_6" data-name="Subtraction 6" d="M4042.483-482.058a33.2,33.2,0,0,1-9.167-1.415,35.159,35.159,0,0,1-8.062-6.451,24.083,24.083,0,0,1-4.771-7.734,24.48,24.48,0,0,1-1.479-9.016,36.5,36.5,0,0,1,1.813-10.3,28.059,28.059,0,0,1,6.82-8.83,26.725,26.725,0,0,1,9.68-5.171c.56-.017,1.12-.026,1.664-.026a35.569,35.569,0,0,1,11.387,1.651,19.777,19.777,0,0,1,8.022,4.953,20.185,20.185,0,0,1,4.724,8.483,37.656,37.656,0,0,1,1.2,11.939h-37c.6,4.985,2.153,8.778,4.6,11.271a11.848,11.848,0,0,0,4.384,2.818,16.638,16.638,0,0,0,5.772.939,28.663,28.663,0,0,0,5.242-.529,13.887,13.887,0,0,0,8-7,11.725,11.725,0,0,1,3.368-.51,11.418,11.418,0,0,1,4.633,1.01,28.171,28.171,0,0,1-8.918,10.437A21.05,21.05,0,0,1,4042.483-482.058Zm-.671-42.293a29.158,29.158,0,0,0-4.5.377,16.938,16.938,0,0,0-7.021,5.527,17.192,17.192,0,0,0-2.979,8.473h29c-.514-4.769-1.994-8.4-4.4-10.783a11.643,11.643,0,0,0-4.339-2.7A17.225,17.225,0,0,0,4041.812-524.352Z" transform="translate(-2643.816 897.474)" fill="#747273"/>
  <g id="Group_503" data-name="Group 503">
    <path id="Path_657" data-name="Path 657" d="M1341.5,366.5q17.79-1.74,23.5,15,.75,16.492.5,33h-8q.25-16.008-.5-32-3.564-9.164-13.5-9-10.179.924-12.5,11-.75,14.991-.5,30h-7v-47h7q-.708,9.2,4,2.5Z" fill="#757374" fill-rule="evenodd"/>
  </g>
  <path id="Subtraction_4" data-name="Subtraction 4" d="M4042.483-482.058a33.2,33.2,0,0,1-9.167-1.415,35.159,35.159,0,0,1-8.062-6.451,24.083,24.083,0,0,1-4.771-7.734,24.48,24.48,0,0,1-1.479-9.016,36.5,36.5,0,0,1,1.813-10.3,28.059,28.059,0,0,1,6.82-8.83,26.725,26.725,0,0,1,9.68-5.171c.56-.017,1.12-.026,1.664-.026a35.569,35.569,0,0,1,11.387,1.651,19.777,19.777,0,0,1,8.022,4.953,20.185,20.185,0,0,1,4.724,8.483,37.656,37.656,0,0,1,1.2,11.939h-37c.6,4.985,2.153,8.778,4.6,11.271a11.848,11.848,0,0,0,4.384,2.818,16.638,16.638,0,0,0,5.772.939,28.663,28.663,0,0,0,5.242-.529,13.887,13.887,0,0,0,8-7,11.725,11.725,0,0,1,3.368-.51,11.418,11.418,0,0,1,4.633,1.01,28.171,28.171,0,0,1-8.918,10.437A21.05,21.05,0,0,1,4042.483-482.058Zm-1.18-42.275a23.665,23.665,0,0,0-3.987.359,16.938,16.938,0,0,0-7.021,5.527,17.192,17.192,0,0,0-2.979,8.473h29a13,13,0,0,0-.5-5,17.8,17.8,0,0,0-6.033-7.019A15.368,15.368,0,0,0,4041.3-524.333Z" transform="translate(-2918.816 897.474)" fill="#737172"/>
  <g id="Group_506" data-name="Group 506">
    <path id="Path_660" data-name="Path 660" d="M1212.5,366.5a22.446,22.446,0,0,1,20.5,8,12.147,12.147,0,0,1,1.5,7h-8q-.75-8.486-9.5-8-7.558-.612-9.5,6.5a6.127,6.127,0,0,0,3,5q8.386,3.3,17,6,9.027,3.8,7.5,13.5-8.517,15.36-25.5,9.5-9.422-3.646-10-13.5h8q1.344,8.211,10,8,7.815.689,10-6.5a6.127,6.127,0,0,0-3-5,184.5,184.5,0,0,1-18-6q-9.225-6.693-4.5-17.5A26.127,26.127,0,0,1,1212.5,366.5Z" fill="#757374" fill-rule="evenodd"/>
  </g>
  <g id="Group_507" data-name="Group 507">
    <path id="Path_661" data-name="Path 661" d="M2292.5,366.5q13.425-1.453,21.5,9a18.374,18.374,0,0,1,.5,6,13.117,13.117,0,0,1-7-1q-5.775-10.531-17-5.5-4.695,6.645,2,11,7.905,2.8,16,5,12.945,9.147,2,21-15.6,8.313-28.5-3.5a22.493,22.493,0,0,1-2.5-8h8q1.815,7.8,10,8,12.075.7,9-10.5-10.62-3.705-21-8-7.725-6.9-3.5-16.5A26.154,26.154,0,0,1,2292.5,366.5Z" fill="#757374" fill-rule="evenodd"/>
  </g>
  <g id="Group_508" data-name="Group 508">
    <path id="Path_662" data-name="Path 662" d="M1674.5,366.5a27.849,27.849,0,0,1,23.5,9,15.5,15.5,0,0,1,2.5,7,16.874,16.874,0,0,1-8-1q-6.135-10.061-18-7.5-9.93,4.832-10,16,1.14,24.558,24,16a29.073,29.073,0,0,0,4-6,32.465,32.465,0,0,1,8-.5q-3.225,12.473-16,15.5-20.82,2.457-27.5-17.5Q1653.385,374.7,1674.5,366.5Z" fill="#747273" fill-rule="evenodd"/>
  </g>
  <g id="Group_509" data-name="Group 509">
    <path id="Path_663" data-name="Path 663" d="M1911.5,367.5h12v7h-12q-1.02,15.6-2,31.5,4.005,2,0,4,2.025,2.721,3-1a50.476,50.476,0,0,1,10-.5v6a37.548,37.548,0,0,1-14-1.5,11.264,11.264,0,0,1-5-9.5v-30h-6v-6h5a31,31,0,0,0,1-11h7A31,31,0,0,0,1911.5,367.5Z" fill="#727071" fill-rule="evenodd"/>
  </g>
  <g id="Group_510" data-name="Group 510">
    <path id="Path_664" data-name="Path 664" d="M2343.5,367.5a16.875,16.875,0,0,1,8,1q7.11,19.059,14.5,38,7-19,14-38a9.866,9.866,0,0,1,8.5,0q-9.42,22.33-18,45a25.879,25.879,0,0,1-10,1Q2352.3,390.885,2343.5,367.5Z" fill="#747273" fill-rule="evenodd"/>
  </g>
  <g id="Group_511" data-name="Group 511">
    <path id="Path_665" data-name="Path 665" d="M1911.5,374.5q-.255,15.508.5,31l1.5,1.5a50.476,50.476,0,0,0,10,.5,12.853,12.853,0,0,1-1,7v-6a50.476,50.476,0,0,0-10,.5q-.975,3.721-3,1,4.005-2,0-4Q1910.49,390.1,1911.5,374.5Z" fill="#908e8f" fill-rule="evenodd"/>
  </g>
</svg>
